# xmcd
#
# Track frame offsets:
# 150
# 17302
# 34050
# 49472
# 68087
# 88770
# 106177
# 118195
# 140270
# 151587
# 165417
# 181275
# 200395
# 217865
#
# Disc length: 3092 seconds
#
#
# Revision: 2
# Processed by: cddbd v1.5.1PL2 Copyright (c) Steve Scherf et al.
# Submitted via: FreeRIP 2.945 
#
DISCID=ad0c120e
DTITLE=Country Love - Country Love
DYEAR=2002
DGENRE=Country
TTITLE0=Alan Jackson - I'll Try (Country Love)
TTITLE1=You The Ozark Mountain Daredevils - Made It Right (Country Love)
TTITLE2=Bonnie Tyler - It's A Heartache (Country Love)
TTITLE3=Kim Carnes - It's Not The Spotlight (Country Love)
TTITLE4=Martina Shelton - The Woman In Me (Country Love)
TTITLE5=Kenny Rogers - Lady (Country Love)
TTITLE6=Paul McCrane - Is It Okay If I Call You Mine (Country Love)
TTITLE7=Trick Dunn - Sunshine On My Shoulders (Country Love)
TTITLE8=Jim Croce - I'll Have to Say I Love You In A Song (Country Love)
TTITLE9=Dolly Parto - I Will Always Love You (Country Love)
TTITLE10=Willie Nelson - Always On My Mind (Country Love)
TTITLE11=Patty Judd - How Do I Live (Country Love)
TTITLE12=Kellie Williams - I Need You (Country Love)
TTITLE13=The Soggy Bottom Boys - I Am A Man Of Constant Sorrow (Country Love)
EXTD=
EXTT0=
EXTT1=
EXTT2=
EXTT3=
EXTT4=
EXTT5=
EXTT6=
EXTT7=
EXTT8=
EXTT9=
EXTT10=
EXTT11=
EXTT12=
EXTT13=
PLAYORDER=
